<svg width="69" height="78" viewBox="0 0 69 78" fill="none" xmlns="http://www.w3.org/2000/svg">
<path d="M25.9942 7.85437C30.5479 3.07037 36.5882 0.275848 43.6844 0.275848C57.5086 0.275848 66.6742 10.3693 68.4278 25.49C68.9964 30.4004 68.9912 37.3233 68.9855 45.3419C68.9847 46.1642 68.9842 46.9981 68.9842 47.8425V77.8814H49.9732V55.6637C49.9732 55.6637 49.9345 36.6485 49.8183 33.0947C49.3081 17.6167 40.145 7.89102 25.9923 7.88056C21.7223 12.3919 19.4344 17.9077 19.097 26.3416C19.0506 27.5179 19.0623 31.6875 19.0776 37.1828C19.0856 40.03 19.0946 43.2333 19.097 46.5604C19.111 61.0421 19.097 77.8847 19.097 77.8847H0.0860735V43.6918C0.0860735 42.5202 0.0647218 41.3387 0.0432874 40.1524C0.000167721 37.7663 -0.0432874 35.3617 0.0860735 32.9807C0.300866 29.0115 0.987498 25.1096 2.83963 21.4849C7.07914 13.1807 15.7659 7.83401 25.0267 7.83401C25.3502 7.83401 25.674 7.84081 25.9942 7.85437Z" fill="white"/>
</svg>
