<svg width="78" height="24" viewBox="0 0 78 24" fill="none" xmlns="http://www.w3.org/2000/svg">
<path d="M43.9766 5H45.8594V15.1953L45.6797 17H43.9766V5ZM51.375 12.6953V12.8594C51.375 13.4844 51.3047 14.0599 51.1641 14.5859C51.0286 15.1068 50.8203 15.5599 50.5391 15.9453C50.263 16.3307 49.9193 16.6302 49.5078 16.8438C49.1016 17.0521 48.6302 17.1562 48.0938 17.1562C47.5677 17.1562 47.1094 17.0573 46.7188 16.8594C46.3281 16.6615 46 16.3802 45.7344 16.0156C45.474 15.651 45.263 15.2161 45.1016 14.7109C44.9401 14.2057 44.8255 13.6484 44.7578 13.0391V12.5156C44.8255 11.901 44.9401 11.3438 45.1016 10.8438C45.263 10.3385 45.474 9.90365 45.7344 9.53906C46 9.16927 46.3255 8.88542 46.7109 8.6875C47.1016 8.48958 47.5573 8.39062 48.0781 8.39062C48.6198 8.39062 49.0964 8.49479 49.5078 8.70312C49.9245 8.91146 50.2708 9.20833 50.5469 9.59375C50.8229 9.97396 51.0286 10.4271 51.1641 10.9531C51.3047 11.4792 51.375 12.0599 51.375 12.6953ZM49.4922 12.8594V12.6953C49.4922 12.3151 49.4609 11.9583 49.3984 11.625C49.3359 11.2865 49.2318 10.9896 49.0859 10.7344C48.9453 10.4792 48.7526 10.2786 48.5078 10.1328C48.2682 9.98177 47.9688 9.90625 47.6094 9.90625C47.276 9.90625 46.9896 9.96354 46.75 10.0781C46.5104 10.1927 46.3099 10.349 46.1484 10.5469C45.987 10.7448 45.8594 10.974 45.7656 11.2344C45.6771 11.4948 45.6172 11.776 45.5859 12.0781V13.4922C45.6328 13.8828 45.7318 14.2422 45.8828 14.5703C46.0391 14.8932 46.2578 15.1536 46.5391 15.3516C46.8203 15.5443 47.1823 15.6406 47.625 15.6406C47.974 15.6406 48.2682 15.5703 48.5078 15.4297C48.7474 15.2891 48.9375 15.0938 49.0781 14.8438C49.224 14.5885 49.3281 14.2917 49.3906 13.9531C49.4583 13.6146 49.4922 13.25 49.4922 12.8594ZM57.7344 15.3047V11.2734C57.7344 10.9714 57.6797 10.7109 57.5703 10.4922C57.4609 10.2734 57.2943 10.1042 57.0703 9.98438C56.8516 9.86458 56.5755 9.80469 56.2422 9.80469C55.9349 9.80469 55.6693 9.85677 55.4453 9.96094C55.2214 10.0651 55.0469 10.2057 54.9219 10.3828C54.7969 10.5599 54.7344 10.7604 54.7344 10.9844H52.8594C52.8594 10.651 52.9401 10.3281 53.1016 10.0156C53.263 9.70312 53.4974 9.42448 53.8047 9.17969C54.112 8.9349 54.4792 8.74219 54.9062 8.60156C55.3333 8.46094 55.8125 8.39062 56.3438 8.39062C56.9792 8.39062 57.5417 8.4974 58.0312 8.71094C58.526 8.92448 58.9141 9.2474 59.1953 9.67969C59.4818 10.1068 59.625 10.6432 59.625 11.2891V15.0469C59.625 15.4323 59.651 15.7786 59.7031 16.0859C59.7604 16.388 59.8411 16.651 59.9453 16.875V17H58.0156C57.9271 16.7969 57.8568 16.5391 57.8047 16.2266C57.7578 15.9089 57.7344 15.6016 57.7344 15.3047ZM58.0078 11.8594L58.0234 13.0234H56.6719C56.3229 13.0234 56.0156 13.0573 55.75 13.125C55.4844 13.1875 55.263 13.2812 55.0859 13.4062C54.9089 13.5312 54.776 13.6823 54.6875 13.8594C54.599 14.0365 54.5547 14.237 54.5547 14.4609C54.5547 14.6849 54.6068 14.8906 54.7109 15.0781C54.8151 15.2604 54.9661 15.4036 55.1641 15.5078C55.3672 15.612 55.612 15.6641 55.8984 15.6641C56.2839 15.6641 56.6198 15.5859 56.9062 15.4297C57.1979 15.2682 57.4271 15.0729 57.5938 14.8438C57.7604 14.6094 57.849 14.388 57.8594 14.1797L58.4688 15.0156C58.4062 15.2292 58.2995 15.4583 58.1484 15.7031C57.9974 15.9479 57.7995 16.1823 57.5547 16.4062C57.3151 16.625 57.026 16.8047 56.6875 16.9453C56.3542 17.0859 55.9688 17.1562 55.5312 17.1562C54.9792 17.1562 54.487 17.0469 54.0547 16.8281C53.6224 16.6042 53.2839 16.3047 53.0391 15.9297C52.7943 15.5495 52.6719 15.1198 52.6719 14.6406C52.6719 14.1927 52.7552 13.7969 52.9219 13.4531C53.0938 13.1042 53.3438 12.8125 53.6719 12.5781C54.0052 12.3438 54.4115 12.1667 54.8906 12.0469C55.3698 11.9219 55.9167 11.8594 56.5312 11.8594H58.0078ZM63.4609 10.3516V17H61.5781V8.54688H63.3516L63.4609 10.3516ZM63.125 12.4609L62.5156 12.4531C62.5208 11.8542 62.6042 11.3047 62.7656 10.8047C62.9323 10.3047 63.1615 9.875 63.4531 9.51562C63.75 9.15625 64.1042 8.88021 64.5156 8.6875C64.9271 8.48958 65.3854 8.39062 65.8906 8.39062C66.2969 8.39062 66.6641 8.44792 66.9922 8.5625C67.3255 8.67188 67.6094 8.85156 67.8438 9.10156C68.0833 9.35156 68.2656 9.67708 68.3906 10.0781C68.5156 10.474 68.5781 10.9609 68.5781 11.5391V17H66.6875V11.5312C66.6875 11.125 66.6276 10.8047 66.5078 10.5703C66.3932 10.3307 66.224 10.1615 66 10.0625C65.7812 9.95833 65.5078 9.90625 65.1797 9.90625C64.8568 9.90625 64.5677 9.97396 64.3125 10.1094C64.0573 10.2448 63.8411 10.4297 63.6641 10.6641C63.4922 10.8984 63.3594 11.1693 63.2656 11.4766C63.1719 11.7839 63.125 12.112 63.125 12.4609ZM72.3984 5V17H70.5078V5H72.3984ZM77.6484 8.54688L73.9688 12.625L71.9531 14.6875L71.4609 13.0938L72.9844 11.2109L75.375 8.54688H77.6484ZM75.7812 17L73.0391 13.0312L74.2266 11.7109L77.9609 17H75.7812Z" fill="white"/>
<g clip-path="url(#clip0_2_32)">
<path d="M6.80801 3.42784C8.00063 2.1521 9.58262 1.4069 11.4412 1.4069C15.0618 1.4069 17.4623 4.09848 17.9216 8.13067C18.0705 9.44011 18.0691 11.2862 18.0676 13.4245C18.0674 13.6438 18.0673 13.8662 18.0673 14.0913V22.1017H13.0882V16.177C13.0882 16.177 13.0781 11.1063 13.0476 10.1586C12.914 6.03111 10.5142 3.43761 6.80749 3.43482C5.68917 4.63783 5.08995 6.10873 5.00158 8.35776C4.98944 8.67145 4.99249 9.78333 4.99652 11.2488C4.99861 12.008 5.00095 12.8622 5.00158 13.7495C5.00527 17.6112 5.00158 22.1026 5.00158 22.1026H0.0225431V12.9845C0.0225431 12.6721 0.016951 12.357 0.0113372 12.0407C4.3927e-05 11.4043 -0.0113372 10.7631 0.0225431 10.1282C0.0787982 9.06975 0.25863 8.02924 0.743713 7.06263C1.85406 4.8482 4.12917 3.42241 6.55461 3.42241C6.63934 3.42241 6.72413 3.42422 6.80801 3.42784Z" fill="white"/>
<path d="M37.6917 13.8718C37.7256 13.2369 37.7142 12.5956 37.703 11.9594C37.6973 11.643 37.6917 11.3279 37.6917 11.0155V1.8974H32.7127C32.7127 1.8974 32.709 6.38875 32.7127 10.2505C32.7133 11.1377 32.7156 11.9919 32.7177 12.7511C32.7218 14.2166 32.7248 15.3285 32.7127 15.6422C32.6244 17.8913 32.0251 19.3621 30.9068 20.5652C27.2002 20.5623 24.8004 17.9688 24.6667 13.8414C24.6363 12.8937 24.6234 10.542 24.6234 7.81825V1.89353L19.648 1.89827V9.90866C19.648 10.1338 19.6478 10.3561 19.6477 10.5755C19.6462 12.7138 19.6449 14.5598 19.7938 15.8693C20.2521 19.9015 22.6526 22.5931 26.2732 22.5931C28.1318 22.5931 29.7138 21.8479 30.9064 20.5721C30.9902 20.5758 31.0749 20.5776 31.1597 20.5776C33.5851 20.5776 35.8602 19.1518 36.9706 16.9374C37.4557 15.9707 37.6355 14.9303 37.6917 13.8718Z" fill="white"/>
</g>
<defs>
<clipPath id="clip0_2_32">
<rect width="37.7143" height="24" fill="white"/>
</clipPath>
</defs>
</svg>
