<svg width="69" height="78" viewBox="0 0 69 78" fill="none" xmlns="http://www.w3.org/2000/svg">
<path d="M68.9138 45.0192C69.0432 42.6383 68.9997 40.2335 68.9568 37.8475C68.9352 36.6613 68.9138 35.4797 68.9138 34.3081V0.115248H49.9031C49.9031 0.115248 49.889 16.9578 49.9031 31.4393C49.9053 34.7664 49.9143 37.9695 49.9222 40.8167C49.9376 46.3123 49.9493 50.4818 49.9031 51.6581C49.5657 60.0923 47.2776 65.608 43.0077 70.1194C28.8553 70.1088 19.6924 60.383 19.1819 44.9053C19.0657 41.3515 19.0166 32.5325 19.0166 22.3184V0.100739L0.01976 0.11849V30.1575C0.01976 31.0018 0.0190158 31.8355 0.0185193 32.6581C0.0125607 40.6767 0.00759475 47.5993 0.576147 52.51C2.32599 67.6307 11.4916 77.7241 25.3158 77.7241C32.4123 77.7241 38.4526 74.9295 43.0062 70.1455C43.3263 70.1592 43.6498 70.1659 43.9733 70.1659C53.234 70.1659 61.9209 64.8192 66.1605 56.5152C68.0126 52.8901 68.6991 48.9884 68.9138 45.0192Z" fill="white"/>
</svg>
